<?xml version="1.0" encoding="UTF-8"?>
<svg width="93px" height="20px" viewBox="0 0 93 20" version="1.1" xmlns="http://www.w3.org/2000/svg" xmlns:xlink="http://www.w3.org/1999/xlink">
    <!-- Generator: Sketch 52.5 (67469) - http://www.bohemiancoding.com/sketch -->
    <title>Browserstack-logo</title>
    <desc>Created with Sketch.</desc>
    <defs>
        <radialGradient cx="49.8655914%" cy="49.9462366%" fx="49.8655914%" fy="49.9462366%" r="49.9193548%" id="radialGradient-1">
            <stop stop-color="#797979" offset="0%"></stop>
            <stop stop-color="#4C4C4C" offset="100%"></stop>
        </radialGradient>
    </defs>
    <g id="Page-1" stroke="none" stroke-width="1" fill="none" fill-rule="evenodd">
        <g id="Browserstack-logo">
            <circle id="Oval" fill="#F4B960" cx="9.96226415" cy="9.96226415" r="9.96226415"></circle>
            <circle id="Oval" fill="#E66F32" cx="8.96226415" cy="8.96226415" r="8.96226415"></circle>
            <circle id="Oval" fill="#E43C41" cx="10.1509434" cy="7.75471698" r="7.75471698"></circle>
            <circle id="Oval" fill="#BDD041" cx="10.7735849" cy="8.37735849" r="7.13207547"></circle>
            <circle id="Oval" fill="#6DB54C" cx="10.245283" cy="8.90566038" r="6.62264151"></circle>
            <circle id="Oval" fill="#AEDAE6" cx="9.20754717" cy="7.86792453" r="5.56603774"></circle>
            <circle id="Oval" fill="#56B8DE" cx="10.1132075" cy="6.94339623" r="4.66037736"></circle>
            <circle id="Oval" fill="#00B1D5" cx="10.6792453" cy="7.52830189" r="4.09433962"></circle>
            <circle id="Oval" fill="url(#radialGradient-1)" cx="10.0943396" cy="8.11320755" r="3.50943396"></circle>
            <circle id="Oval" fill="#221F1F" cx="10.0943396" cy="8.11320755" r="3.50943396"></circle>
            <ellipse id="Oval" fill="#FFFFFF" transform="translate(11.480947, 6.827606) rotate(-65.831561) translate(-11.480947, -6.827606) " cx="11.4809472" cy="6.82760566" rx="1.07541773" ry="1"></ellipse>
            <path d="M23.1132075,6.1509434 C23.1132075,6.09433962 23.1698113,6.03773585 23.2264151,6.03773585 C23.2264151,6.03773585 23.2264151,6.03773585 23.245283,6.03773585 L26.3773585,6.03773585 C28.1698113,6.03773585 29,6.86792453 29,8.11320755 C29.0377358,8.81132075 28.6603774,9.47169811 28.0188679,9.77358491 L28.0188679,9.79245283 C28.7169811,10.0754717 29.1698113,10.7735849 29.1509434,11.5471698 C29.1509434,13.0943396 28.0943396,13.8490566 26.245283,13.8490566 L23.2264151,13.8490566 C23.1698113,13.8490566 23.1132075,13.8113208 23.0943396,13.754717 C23.0943396,13.754717 23.0943396,13.754717 23.0943396,13.7358491 L23.1132075,6.1509434 Z M26.3396226,9.26415094 C27.0754717,9.26415094 27.5471698,8.8490566 27.5471698,8.24528302 C27.5471698,7.64150943 27.0943396,7.20754717 26.3396226,7.20754717 L24.6603774,7.20754717 C24.6226415,7.20754717 24.5849057,7.22641509 24.5849057,7.26415094 C24.5849057,7.26415094 24.5849057,7.26415094 24.5849057,7.28301887 L24.5849057,9.20754717 C24.5849057,9.24528302 24.6037736,9.26415094 24.6415094,9.28301887 C24.6415094,9.28301887 24.6415094,9.28301887 24.6603774,9.28301887 L26.3396226,9.28301887 L26.3396226,9.26415094 Z M24.6415094,12.6226415 L26.3962264,12.6226415 C27.2075472,12.6226415 27.6792453,12.1886792 27.6792453,11.5283019 C27.6792453,10.8679245 27.2264151,10.4528302 26.4150943,10.4528302 L24.6603774,10.4528302 C24.6226415,10.4528302 24.5849057,10.4716981 24.5849057,10.509434 C24.5849057,10.509434 24.5849057,10.509434 24.5849057,10.5283019 L24.5849057,12.5471698 C24.5849057,12.6037736 24.6037736,12.6226415 24.6415094,12.6226415 C24.6415094,12.6226415 24.6415094,12.6226415 24.6415094,12.6226415 Z" id="Shape" fill="#000111" fill-rule="nonzero"></path>
            <path d="M30.1698113,13.8301887 C30.1132075,13.8301887 30.0566038,13.7924528 30.0377358,13.7358491 C30.0377358,13.7358491 30.0377358,13.7358491 30.0377358,13.7169811 L30.0377358,8.41509434 C30.0377358,8.35849057 30.0943396,8.30188679 30.1509434,8.30188679 C30.1509434,8.30188679 30.1509434,8.30188679 30.1698113,8.30188679 L31.3018868,8.30188679 C31.3584906,8.30188679 31.4150943,8.33962264 31.4339623,8.39622642 C31.4339623,8.39622642 31.4339623,8.39622642 31.4339623,8.41509434 L31.4339623,8.88679245 L31.4528302,8.88679245 C31.7358491,8.47169811 32.245283,8.16981132 33,8.16981132 C33.4528302,8.16981132 33.9056604,8.32075472 34.245283,8.62264151 C34.3018868,8.67924528 34.3207547,8.71698113 34.2641509,8.77358491 L33.6037736,9.54716981 C33.5660377,9.60377358 33.490566,9.62264151 33.4339623,9.58490566 C33.4339623,9.58490566 33.4339623,9.58490566 33.4150943,9.58490566 C33.1509434,9.41509434 32.8490566,9.32075472 32.5283019,9.32075472 C31.754717,9.32075472 31.3962264,9.83018868 31.3962264,10.7169811 L31.3962264,13.7169811 C31.3962264,13.7735849 31.3396226,13.8301887 31.2830189,13.8301887 C31.2830189,13.8301887 31.2830189,13.8301887 31.2641509,13.8301887 L30.1698113,13.8301887 Z" id="Path" fill="#000111"></path>
            <path d="M34.509434,12.4150943 C34.3584906,11.9811321 34.3018868,11.509434 34.3018868,11.0566038 C34.2830189,10.5849057 34.3584906,10.1320755 34.509434,9.69811321 C34.8490566,8.73584906 35.754717,8.16981132 36.9811321,8.16981132 C38.2075472,8.16981132 39.0943396,8.73584906 39.4339623,9.69811321 C39.5849057,10.1320755 39.6415094,10.6037736 39.6415094,11.0566038 C39.6603774,11.5283019 39.5849057,11.9811321 39.4339623,12.4150943 C39.0943396,13.3773585 38.1886792,13.9433962 36.9811321,13.9433962 C35.7735849,13.9433962 34.8490566,13.3962264 34.509434,12.4150943 Z M38.0943396,12.0754717 C38.1886792,11.754717 38.245283,11.3962264 38.2264151,11.0566038 C38.245283,10.7169811 38.2075472,10.3584906 38.0943396,10.0377358 C37.9245283,9.56603774 37.4716981,9.28301887 36.9811321,9.32075472 C36.490566,9.28301887 36.0188679,9.58490566 35.8490566,10.0377358 C35.754717,10.3773585 35.6981132,10.7169811 35.7169811,11.0566038 C35.6981132,11.3962264 35.7358491,11.754717 35.8490566,12.0754717 C36.0188679,12.5471698 36.490566,12.8301887 36.9811321,12.7924528 C37.4716981,12.8301887 37.9245283,12.5471698 38.0943396,12.0754717 Z" id="Shape" fill="#000111" fill-rule="nonzero"></path>
            <path d="M45.6415094,13.8301887 C45.5660377,13.8301887 45.509434,13.7735849 45.490566,13.7169811 L44.3396226,10.1698113 L44.3207547,10.1698113 L43.1509434,13.6981132 C43.1320755,13.7735849 43.0754717,13.8113208 43,13.8113208 L41.9811321,13.8113208 C41.9056604,13.8113208 41.8490566,13.754717 41.8301887,13.6981132 L39.9433962,8.39622642 C39.9245283,8.35849057 39.9433962,8.30188679 39.9811321,8.28301887 C40,8.28301887 40.0188679,8.26415094 40.0377358,8.28301887 L41.2264151,8.28301887 C41.3018868,8.28301887 41.3773585,8.32075472 41.3962264,8.39622642 L42.5471698,12.0377358 L42.5660377,12.0377358 L43.6981132,8.39622642 C43.7169811,8.32075472 43.7924528,8.28301887 43.8679245,8.28301887 L44.754717,8.28301887 C44.8301887,8.28301887 44.8867925,8.32075472 44.9245283,8.39622642 L46.1320755,12.0377358 L46.1509434,12.0377358 L47.245283,8.39622642 C47.2641509,8.32075472 47.3396226,8.26415094 47.4150943,8.28301887 L48.6037736,8.28301887 C48.6415094,8.26415094 48.6981132,8.30188679 48.6981132,8.33962264 C48.6981132,8.35849057 48.6981132,8.37735849 48.6981132,8.39622642 L46.8113208,13.6981132 C46.7924528,13.7735849 46.7358491,13.8113208 46.6603774,13.8113208 L45.6415094,13.8301887 Z" id="Path" fill="#000111"></path>
            <path d="M48.9245283,13.0754717 C48.8867925,13.0377358 48.8679245,12.9622642 48.9056604,12.9245283 C48.9056604,12.9245283 48.9056604,12.9245283 48.9245283,12.9056604 L49.6226415,12.2264151 C49.6792453,12.1886792 49.754717,12.1886792 49.7924528,12.2264151 C50.2830189,12.6226415 50.9056604,12.8490566 51.5471698,12.8490566 C52.2830189,12.8490566 52.6603774,12.5660377 52.6603774,12.1886792 C52.6603774,11.8490566 52.4528302,11.6415094 51.6792453,11.5849057 L51.0377358,11.5283019 C49.8301887,11.4150943 49.2075472,10.8490566 49.2075472,9.90566038 C49.2075472,8.83018868 50.0377358,8.16981132 51.5283019,8.16981132 C52.3207547,8.1509434 53.1132075,8.39622642 53.7735849,8.8490566 C53.8301887,8.88679245 53.8301887,8.94339623 53.8113208,9 C53.8113208,9 53.8113208,9 53.8113208,9.01886792 L53.2075472,9.69811321 C53.1698113,9.75471698 53.0943396,9.75471698 53.0377358,9.71698113 C52.5660377,9.43396226 52.0188679,9.26415094 51.4716981,9.26415094 C50.8867925,9.26415094 50.5660377,9.50943396 50.5660377,9.83018868 C50.5660377,10.1509434 50.7735849,10.3396226 51.5471698,10.4150943 L52.1886792,10.4716981 C53.4339623,10.5849057 54.0377358,11.1886792 54.0377358,12.0943396 C54.0377358,13.1886792 53.1698113,13.9622642 51.5283019,13.9622642 C50.5660377,13.9622642 49.6603774,13.6603774 48.9245283,13.0754717 Z" id="Path" fill="#000111"></path>
            <path d="M54.9433962,12.4150943 C54.7924528,11.9811321 54.7169811,11.5283019 54.7358491,11.0566038 C54.7169811,10.5849057 54.7924528,10.1320755 54.9245283,9.69811321 C55.2641509,8.73584906 56.1698113,8.16981132 57.3584906,8.16981132 C58.5849057,8.16981132 59.4716981,8.75471698 59.8113208,9.69811321 C59.9433962,10.0943396 60,10.4716981 60,11.3584906 C60,11.4150943 59.9433962,11.4716981 59.8867925,11.4716981 C59.8867925,11.4716981 59.8679245,11.4716981 59.8679245,11.4716981 L56.1886792,11.4716981 C56.1509434,11.4716981 56.1132075,11.490566 56.1132075,11.5283019 C56.1132075,11.5283019 56.1132075,11.5283019 56.1132075,11.5471698 C56.1132075,11.6981132 56.1509434,11.8301887 56.2075472,11.9622642 C56.3962264,12.509434 56.8679245,12.7924528 57.5471698,12.7924528 C58.0566038,12.8113208 58.5660377,12.6226415 58.9433962,12.2641509 C58.9811321,12.2075472 59.0754717,12.1886792 59.1320755,12.245283 C59.1320755,12.245283 59.1320755,12.245283 59.1320755,12.245283 L59.8679245,12.8490566 C59.9056604,12.8679245 59.9245283,12.9433962 59.9056604,12.9811321 C59.9056604,13 59.8867925,13 59.8867925,13 C59.3773585,13.5471698 58.5283019,13.9433962 57.4339623,13.9433962 C56.1886792,13.9433962 55.2830189,13.3773585 54.9433962,12.4150943 Z M58.5660377,9.96226415 C58.3962264,9.50943396 57.9622642,9.24528302 57.3962264,9.24528302 C56.8301887,9.24528302 56.3773585,9.50943396 56.2264151,9.96226415 C56.1698113,10.1132075 56.1509434,10.2641509 56.1509434,10.4339623 C56.1509434,10.4716981 56.1698113,10.490566 56.2075472,10.509434 C56.2075472,10.509434 56.2075472,10.509434 56.2264151,10.509434 L58.5660377,10.509434 C58.6037736,10.509434 58.6415094,10.490566 58.6415094,10.4528302 C58.6415094,10.4528302 58.6415094,10.4528302 58.6415094,10.4339623 C58.6415094,10.2830189 58.6037736,10.1132075 58.5660377,9.96226415 Z" id="Shape" fill="#000111" fill-rule="nonzero"></path>
            <path d="M61.0566038,13.8301887 C61,13.8301887 60.9433962,13.7924528 60.9245283,13.7358491 C60.9245283,13.7358491 60.9245283,13.7358491 60.9245283,13.7169811 L60.9245283,8.41509434 C60.9245283,8.35849057 60.9811321,8.30188679 61.0377358,8.30188679 C61.0377358,8.30188679 61.0377358,8.30188679 61.0566038,8.30188679 L62.1886792,8.30188679 C62.245283,8.30188679 62.3018868,8.33962264 62.3207547,8.39622642 C62.3207547,8.39622642 62.3207547,8.39622642 62.3207547,8.41509434 L62.3207547,8.88679245 L62.3396226,8.88679245 C62.6226415,8.47169811 63.1320755,8.16981132 63.8867925,8.16981132 C64.3396226,8.16981132 64.7924528,8.32075472 65.1320755,8.62264151 C65.1886792,8.67924528 65.2075472,8.71698113 65.1509434,8.77358491 L64.490566,9.54716981 C64.4528302,9.60377358 64.3773585,9.62264151 64.3207547,9.58490566 C64.3207547,9.58490566 64.3207547,9.58490566 64.3018868,9.58490566 C64.0377358,9.41509434 63.7358491,9.32075472 63.4150943,9.32075472 C62.6415094,9.32075472 62.2830189,9.83018868 62.2830189,10.7169811 L62.2830189,13.7169811 C62.2830189,13.7735849 62.2264151,13.8301887 62.1698113,13.8301887 C62.1698113,13.8301887 62.1698113,13.8301887 62.1509434,13.8301887 L61.0566038,13.8301887 Z" id="Path" fill="#000111"></path>
            <path d="M65.3773585,12.9245283 C65.3207547,12.8867925 65.3018868,12.8113208 65.3396226,12.754717 C65.3396226,12.754717 65.3396226,12.754717 65.3396226,12.754717 L66.1132075,11.9245283 C66.1509434,11.8679245 66.2264151,11.8679245 66.2830189,11.9056604 C66.2830189,11.9056604 66.2830189,11.9056604 66.2830189,11.9056604 C66.9433962,12.4150943 67.7358491,12.6981132 68.5660377,12.7358491 C69.5660377,12.7358491 70.1509434,12.2641509 70.1509434,11.6037736 C70.1509434,11.0377358 69.7735849,10.6792453 68.6226415,10.5283019 L68.1698113,10.4716981 C66.5471698,10.2641509 65.6226415,9.54716981 65.6226415,8.24528302 C65.6226415,6.83018868 66.7358491,5.90566038 68.4716981,5.90566038 C69.4339623,5.88679245 70.3773585,6.16981132 71.2075472,6.69811321 C71.2641509,6.71698113 71.2830189,6.77358491 71.245283,6.83018868 C71.245283,6.8490566 71.2264151,6.8490566 71.2264151,6.86792453 L70.6415094,7.71698113 C70.6037736,7.77358491 70.5283019,7.79245283 70.4716981,7.75471698 C69.8679245,7.35849057 69.1698113,7.1509434 68.4528302,7.1509434 C67.6037736,7.1509434 67.1320755,7.58490566 67.1320755,8.18867925 C67.1320755,8.73584906 67.5471698,9.09433962 68.6792453,9.24528302 L69.1320755,9.30188679 C70.754717,9.50943396 71.6415094,10.2264151 71.6415094,11.5660377 C71.6415094,12.9433962 70.5660377,13.9811321 68.4716981,13.9811321 C67.2264151,13.9433962 66.0377358,13.490566 65.3773585,12.9245283 Z" id="Path" fill="#000111"></path>
            <path d="M74.2075472,13.9245283 C73,13.9245283 72.5471698,13.3773585 72.5471698,12.3018868 L72.5471698,9.39622642 C72.5471698,9.35849057 72.5283019,9.33962264 72.490566,9.32075472 C72.490566,9.32075472 72.490566,9.32075472 72.4716981,9.32075472 L72.0754717,9.32075472 C72.0188679,9.32075472 71.9622642,9.28301887 71.9433962,9.22641509 C71.9433962,9.22641509 71.9433962,9.22641509 71.9433962,9.20754717 L71.9433962,8.43396226 C71.9433962,8.37735849 72,8.32075472 72.0566038,8.32075472 C72.0566038,8.32075472 72.0566038,8.32075472 72.0754717,8.32075472 L72.4716981,8.32075472 C72.509434,8.32075472 72.5471698,8.30188679 72.5471698,8.26415094 C72.5471698,8.26415094 72.5471698,8.26415094 72.5471698,8.24528302 L72.5471698,6.73584906 C72.5471698,6.67924528 72.6037736,6.62264151 72.6603774,6.62264151 C72.6603774,6.62264151 72.6603774,6.62264151 72.6792453,6.62264151 L73.8113208,6.62264151 C73.8679245,6.62264151 73.9245283,6.66037736 73.9433962,6.71698113 C73.9433962,6.71698113 73.9433962,6.71698113 73.9433962,6.73584906 L73.9433962,8.24528302 C73.9433962,8.28301887 73.9622642,8.30188679 74,8.32075472 C74,8.32075472 74,8.32075472 74.0188679,8.32075472 L74.8113208,8.32075472 C74.8679245,8.32075472 74.9245283,8.35849057 74.9433962,8.41509434 C74.9433962,8.41509434 74.9433962,8.41509434 74.9433962,8.43396226 L74.9433962,9.20754717 C74.9433962,9.26415094 74.8867925,9.32075472 74.8301887,9.32075472 C74.8301887,9.32075472 74.8301887,9.32075472 74.8113208,9.32075472 L74.0188679,9.32075472 C73.9811321,9.32075472 73.9433962,9.33962264 73.9433962,9.37735849 C73.9433962,9.37735849 73.9433962,9.37735849 73.9433962,9.39622642 L73.9433962,12.2641509 C73.9433962,12.6603774 74.1132075,12.7735849 74.509434,12.7735849 L74.8113208,12.7735849 C74.8679245,12.7735849 74.9245283,12.8113208 74.9433962,12.8679245 C74.9433962,12.8679245 74.9433962,12.8679245 74.9433962,12.8867925 L74.9433962,13.8113208 C74.9433962,13.8679245 74.8867925,13.9245283 74.8301887,13.9245283 C74.8301887,13.9245283 74.8301887,13.9245283 74.8113208,13.9245283 L74.2075472,13.9245283 Z" id="Path" fill="#000111"></path>
            <path d="M79.4716981,13.8301887 C79.4150943,13.8301887 79.3584906,13.7924528 79.3396226,13.7358491 C79.3396226,13.7358491 79.3396226,13.7358491 79.3396226,13.7169811 L79.3396226,13.3207547 C79.0566038,13.6981132 78.490566,13.9622642 77.6603774,13.9622642 C76.5660377,13.9622642 75.6603774,13.4339623 75.6603774,12.2830189 C75.6603774,11.0754717 76.5849057,10.5283019 78.0566038,10.5283019 L79.2641509,10.5283019 C79.3018868,10.5283019 79.3396226,10.509434 79.3396226,10.4716981 C79.3396226,10.4716981 79.3396226,10.4716981 79.3396226,10.4528302 L79.3396226,10.1886792 C79.3396226,9.56603774 79.0188679,9.26415094 78.0188679,9.26415094 C77.5283019,9.24528302 77.0566038,9.37735849 76.6603774,9.64150943 C76.6037736,9.67924528 76.5283019,9.67924528 76.490566,9.62264151 C76.490566,9.62264151 76.490566,9.62264151 76.490566,9.60377358 L76.0377358,8.8490566 C76,8.81132075 76.0188679,8.73584906 76.0566038,8.69811321 C76.0566038,8.69811321 76.0566038,8.69811321 76.0566038,8.69811321 C76.5471698,8.37735849 77.1886792,8.1509434 78.1698113,8.1509434 C79.9811321,8.1509434 80.6603774,8.71698113 80.6603774,10.0754717 L80.6603774,13.6792453 C80.6603774,13.7358491 80.6037736,13.7924528 80.5471698,13.7924528 C80.5471698,13.7924528 80.5471698,13.7924528 80.5283019,13.7924528 L79.4716981,13.7924528 L79.4716981,13.8301887 Z M79.3207547,11.9622642 L79.3207547,11.5471698 C79.3207547,11.509434 79.3018868,11.490566 79.2641509,11.4716981 C79.2641509,11.4716981 79.2641509,11.4716981 79.245283,11.4716981 L78.2641509,11.4716981 C77.3773585,11.4716981 76.9811321,11.6981132 76.9811321,12.2075472 C76.9811321,12.6603774 77.3396226,12.8867925 78.0188679,12.8867925 C78.8490566,12.9056604 79.3207547,12.6037736 79.3207547,11.9622642 Z" id="Shape" fill="#000111" fill-rule="nonzero"></path>
            <path d="M81.7169811,12.4150943 C81.5849057,11.9811321 81.509434,11.509434 81.5283019,11.0566038 C81.509434,10.6037736 81.5849057,10.1320755 81.7169811,9.69811321 C82.0566038,8.71698113 82.9811321,8.16981132 84.1886792,8.16981132 C84.9811321,8.13207547 85.7358491,8.45283019 86.2641509,9.03773585 C86.3018868,9.0754717 86.3018868,9.1509434 86.2641509,9.18867925 C86.2641509,9.18867925 86.2641509,9.18867925 86.245283,9.20754717 L85.4716981,9.83018868 C85.4150943,9.86792453 85.3396226,9.86792453 85.3018868,9.81132075 C85.3018868,9.81132075 85.3018868,9.81132075 85.3018868,9.79245283 C85.0188679,9.47169811 84.6226415,9.30188679 84.1886792,9.32075472 C83.6603774,9.32075472 83.245283,9.56603774 83.0754717,10.0377358 C82.9811321,10.3773585 82.9245283,10.7169811 82.9433962,11.0566038 C82.9245283,11.3962264 82.9622642,11.754717 83.0754717,12.0943396 C83.245283,12.5660377 83.6603774,12.8113208 84.1886792,12.8113208 C84.6037736,12.8301887 85.0188679,12.6415094 85.3018868,12.3207547 C85.3396226,12.2641509 85.4150943,12.2641509 85.4716981,12.3018868 C85.4716981,12.3018868 85.4716981,12.3018868 85.4716981,12.3018868 L86.245283,12.9245283 C86.3018868,12.9622642 86.3018868,13.0188679 86.2641509,13.0754717 C86.2641509,13.0754717 86.2641509,13.0754717 86.245283,13.0943396 C85.6981132,13.6603774 84.9433962,13.9622642 84.1698113,13.9433962 C82.9811321,13.9433962 82.0754717,13.4150943 81.7169811,12.4150943 Z" id="Path" fill="#000111"></path>
            <path d="M91.0943396,13.8301887 C91.0188679,13.8301887 90.9433962,13.7924528 90.9056604,13.7169811 L89.3962264,11.3962264 L88.5849057,12.2641509 L88.5849057,13.7169811 C88.5849057,13.7735849 88.5283019,13.8301887 88.4716981,13.8301887 C88.4716981,13.8301887 88.4716981,13.8301887 88.4528302,13.8301887 L87.3207547,13.8301887 C87.2641509,13.8301887 87.2075472,13.7924528 87.1886792,13.7358491 C87.1886792,13.7358491 87.1886792,13.7358491 87.1886792,13.7169811 L87.1886792,6.1509434 C87.1886792,6.09433962 87.245283,6.03773585 87.3018868,6.03773585 C87.3018868,6.03773585 87.3018868,6.03773585 87.3207547,6.03773585 L88.4528302,6.03773585 C88.509434,6.03773585 88.5660377,6.0754717 88.5849057,6.13207547 C88.5849057,6.13207547 88.5849057,6.13207547 88.5849057,6.1509434 L88.5849057,10.6415094 L90.6226415,8.41509434 C90.6792453,8.33962264 90.7735849,8.30188679 90.8490566,8.30188679 L92.1132075,8.30188679 C92.1509434,8.30188679 92.1886792,8.32075472 92.1886792,8.35849057 C92.1886792,8.37735849 92.1886792,8.41509434 92.1698113,8.41509434 L90.2641509,10.4339623 L92.4528302,13.7169811 C92.4716981,13.754717 92.4716981,13.7924528 92.4528302,13.8113208 C92.4339623,13.8301887 92.4150943,13.8301887 92.3962264,13.8301887 L91.0943396,13.8301887 Z" id="Path" fill="#000111"></path>
        </g>
    </g>
</svg>