<?xml version="1.0" encoding="UTF-8"?>
<svg width="919px" height="501px" viewBox="0 0 919 501" version="1.1" xmlns="http://www.w3.org/2000/svg" xmlns:xlink="http://www.w3.org/1999/xlink">
    <!-- Generator: Sketch 53 (72520) - https://sketchapp.com -->
    <title>Artboard</title>
    <desc>Created with Sketch.</desc>
    <g id="Artboard" stroke="none" stroke-width="1" fill="none" fill-rule="evenodd">
        <rect id="Rectangle" stroke="#30353F" fill="#D8D8D8" x="33.5" y="138.5" width="191" height="321" rx="5"></rect>
        <rect id="Rectangle" stroke="#30353F" fill="#D8D8D8" x="360.5" y="39.5" width="191" height="420" rx="5"></rect>
        <rect id="Rectangle" stroke="#30353F" fill="#D8D8D8" x="682.5" y="39.5" width="191" height="420" rx="5"></rect>
        <text id="AUSPICE-(CLIENT)" font-family="Helvetica-Bold, Helvetica" font-size="17" font-weight="bold" fill="#30353F">
            <tspan x="53" y="163">AUSPICE (CLIENT)</tspan>
        </text>
        <text id="serve-different-page" font-family="Helvetica-LightOblique, Helvetica" font-size="14" font-style="italic" font-weight="300" fill="#30353F">
            <tspan x="566.015" y="129">serve different </tspan>
            <tspan x="564.461" y="146">page / redirect </tspan>
            <tspan x="581.45" y="163">response</tspan>
        </text>
        <text id="API-request" font-family="Helvetica-LightOblique, Helvetica" font-size="14" font-style="italic" font-weight="300" fill="#30353F">
            <tspan x="252.058" y="169">API request</tspan>
        </text>
        <text id="cookie" font-family="Helvetica-LightOblique, Helvetica" font-size="14" font-style="italic" font-weight="300" fill="#30353F">
            <tspan x="596.878" y="238">cookie</tspan>
        </text>
        <text id="cookie-+-res-for-ori" font-family="Helvetica-LightOblique, Helvetica" font-size="14" font-style="italic" font-weight="300" fill="#30353F">
            <tspan x="241.654" y="253">cookie + res for </tspan>
            <tspan x="255.234" y="270">original req</tspan>
        </text>
        <text id="No-cookie-set-/-not" font-family="Helvetica-Light, Helvetica" font-size="17" font-weight="300">
            <tspan x="399.305" y="112" fill="#30353F">No cookie set / </tspan>
            <tspan x="397.5795" y="132" fill="#30353F">not appropriate </tspan>
            <tspan x="414.112" y="152" fill="#30353F">credentials</tspan>
            <tspan x="456" y="172" font-family="Helvetica-Bold, Helvetica" font-weight="bold" fill="#5DA8A3"></tspan>
            <tspan x="456" y="192" font-family="Helvetica-Bold, Helvetica" font-weight="bold" fill="#5DA8A3"></tspan>
        </text>
        <text id="Authenticated-:)" font-family="Helvetica-Light, Helvetica" font-size="17" font-weight="300">
            <tspan x="396.0225" y="400" fill="#30353F">Authenticated :)</tspan>
            <tspan x="516.9775" y="400" font-family="Helvetica-Bold, Helvetica" font-weight="bold" fill="#5DA8A3"></tspan>
            <tspan x="456.5" y="420" font-family="Helvetica-Bold, Helvetica" font-weight="bold" fill="#5DA8A3"></tspan>
        </text>
        <text id="SERVER" font-family="Helvetica-Bold, Helvetica" font-size="17" font-weight="bold" fill="#30353F">
            <tspan x="421.694824" y="66">SERVER</tspan>
        </text>
        <text id="CUSTOM-LOGIN-PAGE" font-family="Helvetica-Bold, Helvetica" font-size="17" font-weight="bold" fill="#30353F">
            <tspan x="686.718262" y="67">CUSTOM LOGIN PAGE</tspan>
        </text>
        <path id="Line" d="M332.5,175.5 L234.5,175.5 L233.5,175.5 L233.5,173.5 L234.5,173.5 L332.5,173.5 L332.5,167.5 L346.5,174.5 L332.5,181.5 L332.5,175.5 Z" fill="#30353F" fill-rule="nonzero"></path>
        <text id="index.html-request" font-family="Helvetica-LightOblique, Helvetica" font-size="14" font-style="italic" font-weight="300" fill="#30353F">
            <tspan x="253.216" y="63">index.html </tspan>
            <tspan x="261.896" y="80">request</tspan>
        </text>
        <path id="Line" d="M332.5,87.5 L234.5,87.5 L233.5,87.5 L233.5,85.5 L234.5,85.5 L332.5,85.5 L332.5,79.5 L346.5,86.5 L332.5,93.5 L332.5,87.5 Z" fill="#30353F" fill-rule="nonzero"></path>
        <text id="cookie-+-API-req" font-family="Helvetica-LightOblique, Helvetica" font-size="14" font-style="italic" font-weight="300" fill="#30353F">
            <tspan x="238.154" y="373">cookie + API req</tspan>
        </text>
        <path id="Line" d="M337.5,382.5 L239.5,382.5 L238.5,382.5 L238.5,380.5 L239.5,380.5 L337.5,380.5 L337.5,374.5 L351.5,381.5 L337.5,388.5 L337.5,382.5 Z" fill="#30353F" fill-rule="nonzero"></path>
        <path id="Line" d="M659.5,175.5 L561.5,175.5 L560.5,175.5 L560.5,173.5 L561.5,173.5 L659.5,173.5 L659.5,167.5 L673.5,174.5 L659.5,181.5 L659.5,175.5 Z" fill="#30353F" fill-rule="nonzero"></path>
        <path id="Line" d="M575.5,243.5 L673.5,243.5 L674.5,243.5 L674.5,245.5 L673.5,245.5 L575.5,245.5 L575.5,251.5 L561.5,244.5 L575.5,237.5 L575.5,243.5 Z" fill="#30353F" fill-rule="nonzero"></path>
        <path id="Line" d="M248.5,276.5 L346.5,276.5 L347.5,276.5 L347.5,278.5 L346.5,278.5 L248.5,278.5 L248.5,284.5 L234.5,277.5 L248.5,270.5 L248.5,276.5 Z" fill="#30353F" fill-rule="nonzero"></path>
        <text id="API-response" font-family="Helvetica-LightOblique, Helvetica" font-size="14" font-style="italic" font-weight="300" fill="#30353F">
            <tspan x="253.612" y="415">API response</tspan>
        </text>
        <path id="Line" d="M251.5,419.5 L349.5,419.5 L350.5,419.5 L350.5,421.5 L349.5,421.5 L251.5,421.5 L251.5,427.5 L237.5,420.5 L251.5,413.5 L251.5,419.5 Z" fill="#30353F" fill-rule="nonzero"></path>
        <text id="custom-authenticatio" font-family="Helvetica-Light, Helvetica" font-size="17" font-weight="300" fill="#30353F">
            <tspan x="694.8685" y="192">custom authentication </tspan>
            <tspan x="700.5635" y="212">implementation (e.g. </tspan>
            <tspan x="730.3135" y="232">using Auth0)</tspan>
        </text>
    </g>
</svg>